<svg width="124" height="124" viewBox="0 0 124 124" fill="none" xmlns="http://www.w3.org/2000/svg">
<rect width="124" height="124" rx="62" fill="white"/>
<rect width="124" height="124" rx="62" fill="#42B0A8" fill-opacity="0.08"/>
<path d="M82.0766 51.2984L68.9516 38.1734C68.7773 37.9994 68.5705 37.8613 68.3428 37.7672C68.1152 37.6731 67.8713 37.6248 67.625 37.625H45.125C44.1304 37.625 43.1766 38.0201 42.4733 38.7233C41.7701 39.4266 41.375 40.3804 41.375 41.375V82.625C41.375 83.6196 41.7701 84.5734 42.4733 85.2766C43.1766 85.9799 44.1304 86.375 45.125 86.375H78.875C79.8696 86.375 80.8234 85.9799 81.5266 85.2766C82.2299 84.5734 82.625 83.6196 82.625 82.625V52.625C82.6252 52.3787 82.5769 52.1348 82.4828 51.9072C82.3887 51.6795 82.2506 51.4727 82.0766 51.2984ZM68.9516 71.9234C69.1258 72.0976 69.264 72.3045 69.3582 72.5321C69.4525 72.7597 69.501 73.0036 69.501 73.25C69.501 73.4964 69.4525 73.7403 69.3582 73.9679C69.264 74.1955 69.1258 74.4024 68.9516 74.5766C68.7774 74.7508 68.5705 74.889 68.3429 74.9832C68.1153 75.0775 67.8714 75.126 67.625 75.126C67.3786 75.126 67.1347 75.0775 66.9071 74.9832C66.6795 74.889 66.4726 74.7508 66.2984 74.5766L62 70.2758L57.7016 74.5766C57.5274 74.7508 57.3205 74.889 57.0929 74.9832C56.8653 75.0775 56.6214 75.126 56.375 75.126C56.1286 75.126 55.8847 75.0775 55.6571 74.9832C55.4295 74.889 55.2226 74.7508 55.0484 74.5766C54.8742 74.4024 54.736 74.1955 54.6418 73.9679C54.5475 73.7403 54.499 73.4964 54.499 73.25C54.499 73.0036 54.5475 72.7597 54.6418 72.5321C54.736 72.3045 54.8742 72.0976 55.0484 71.9234L59.3492 67.625L55.0484 63.3266C54.6966 62.9747 54.499 62.4976 54.499 62C54.499 61.5024 54.6966 61.0253 55.0484 60.6734C55.4003 60.3216 55.8774 60.124 56.375 60.124C56.8726 60.124 57.3497 60.3216 57.7016 60.6734L62 64.9742L66.2984 60.6734C66.4726 60.4992 66.6795 60.361 66.9071 60.2668C67.1347 60.1725 67.3786 60.124 67.625 60.124C67.8714 60.124 68.1153 60.1725 68.3429 60.2668C68.5705 60.361 68.7774 60.4992 68.9516 60.6734C69.1258 60.8476 69.264 61.0545 69.3582 61.2821C69.4525 61.5097 69.501 61.7536 69.501 62C69.501 62.2464 69.4525 62.4903 69.3582 62.7179C69.264 62.9455 69.1258 63.1524 68.9516 63.3266L64.6508 67.625L68.9516 71.9234ZM67.625 52.625V42.3125L77.9375 52.625H67.625Z" fill="#42B0A8"/>
</svg>
