<svg width="70" height="70" viewBox="0 0 70 70" fill="none" xmlns="http://www.w3.org/2000/svg">
<path d="M65.5813 27.1313C64.4031 25.9 63.1844 24.6313 62.725 23.5156C62.3 22.4937 62.275 20.8 62.25 19.1594C62.2031 16.1094 62.1531 12.6531 59.75 10.25C57.3469 7.84687 53.8906 7.79688 50.8406 7.75C49.2 7.725 47.5062 7.7 46.4844 7.275C45.3719 6.81562 44.1 5.59687 42.8687 4.41875C40.7125 2.34687 38.2625 0 35 0C31.7375 0 29.2906 2.34687 27.1313 4.41875C25.9 5.59687 24.6313 6.81562 23.5156 7.275C22.5 7.7 20.8 7.725 19.1594 7.75C16.1094 7.79688 12.6531 7.84687 10.25 10.25C7.84687 12.6531 7.8125 16.1094 7.75 19.1594C7.725 20.8 7.7 22.4937 7.275 23.5156C6.81562 24.6281 5.59687 25.9 4.41875 27.1313C2.34687 29.2875 0 31.7375 0 35C0 38.2625 2.34687 40.7094 4.41875 42.8687C5.59687 44.1 6.81562 45.3688 7.275 46.4844C7.7 47.5062 7.725 49.2 7.75 50.8406C7.79688 53.8906 7.84687 57.3469 10.25 59.75C12.6531 62.1531 16.1094 62.2031 19.1594 62.25C20.8 62.275 22.4937 62.3 23.5156 62.725C24.6281 63.1844 25.9 64.4031 27.1313 65.5813C29.2875 67.6531 31.7375 70 35 70C38.2625 70 40.7094 67.6531 42.8687 65.5813C44.1 64.4031 45.3688 63.1844 46.4844 62.725C47.5062 62.3 49.2 62.275 50.8406 62.25C53.8906 62.2031 57.3469 62.1531 59.75 59.75C62.1531 57.3469 62.2031 53.8906 62.25 50.8406C62.275 49.2 62.3 47.5062 62.725 46.4844C63.1844 45.3719 64.4031 44.1 65.5813 42.8687C67.6531 40.7125 70 38.2625 70 35C70 31.7375 67.6531 29.2906 65.5813 27.1313ZM35 55C34.2583 55 33.5333 54.7801 32.9166 54.368C32.2999 53.956 31.8193 53.3703 31.5355 52.6851C31.2516 51.9998 31.1774 51.2458 31.3221 50.5184C31.4667 49.791 31.8239 49.1228 32.3484 48.5984C32.8728 48.0739 33.541 47.7168 34.2684 47.5721C34.9958 47.4274 35.7498 47.5016 36.4351 47.7855C37.1203 48.0693 37.706 48.5499 38.118 49.1666C38.5301 49.7833 38.75 50.5083 38.75 51.25C38.75 52.2446 38.3549 53.1984 37.6516 53.9016C36.9484 54.6049 35.9946 55 35 55ZM37.5 39.775V40C37.5 40.663 37.2366 41.2989 36.7678 41.7678C36.2989 42.2366 35.663 42.5 35 42.5C34.337 42.5 33.7011 42.2366 33.2322 41.7678C32.7634 41.2989 32.5 40.663 32.5 40V37.5C32.5 36.837 32.7634 36.2011 33.2322 35.7322C33.7011 35.2634 34.337 35 35 35C39.1344 35 42.5 32.1875 42.5 28.75C42.5 25.3125 39.1344 22.5 35 22.5C30.8656 22.5 27.5 25.3125 27.5 28.75V30C27.5 30.663 27.2366 31.2989 26.7678 31.7678C26.2989 32.2366 25.663 32.5 25 32.5C24.337 32.5 23.7011 32.2366 23.2322 31.7678C22.7634 31.2989 22.5 30.663 22.5 30V28.75C22.5 22.5469 28.1063 17.5 35 17.5C41.8937 17.5 47.5 22.5469 47.5 28.75C47.5 34.1813 43.2 38.7281 37.5 39.775Z" fill="#E94848"/>
</svg>
